<svg xmlns="http://www.w3.org/2000/svg">
  <symbol id="phone" width="100%" height="100%" viewBox="0 0 24 24">
<g clip-path="url(#clip0_2_1213)">
<path d="M23.9481 18.5956C23.8802 18.3911 23.4483 18.0898 22.6528 17.6924C22.4372 17.5671 22.1301 17.3969 21.7328 17.181C21.335 16.965 20.974 16.7661 20.6504 16.5842C20.3261 16.4024 20.0222 16.2263 19.7384 16.0561C19.693 16.022 19.551 15.9227 19.3123 15.7576C19.0735 15.5929 18.872 15.4707 18.707 15.391C18.5422 15.3118 18.3802 15.2719 18.2211 15.2719C17.9939 15.2719 17.7101 15.4339 17.3693 15.7576C17.0285 16.0816 16.7159 16.4336 16.432 16.8147C16.148 17.1955 15.8468 17.5475 15.5289 17.8714C15.2106 18.1954 14.949 18.3572 14.7447 18.3572C14.6422 18.3572 14.5143 18.3286 14.361 18.2722C14.2078 18.2154 14.0913 18.1668 14.0113 18.1276C13.932 18.0875 13.7959 18.0082 13.6026 17.8885C13.409 17.7692 13.3013 17.7038 13.2786 17.6924C11.7218 16.8286 10.3867 15.8399 9.273 14.7266C8.15962 13.6127 7.17084 12.2777 6.30725 10.7208C6.29591 10.6981 6.23042 10.5901 6.11119 10.397C5.99179 10.2038 5.91221 10.0676 5.87245 9.98781C5.83268 9.90835 5.78439 9.79181 5.72767 9.63844C5.67095 9.48506 5.64248 9.3573 5.64248 9.25491C5.64248 9.05049 5.80445 8.789 6.12833 8.47079C6.45215 8.15276 6.80451 7.8515 7.18505 7.56762C7.56589 7.28374 7.91789 6.97114 8.24183 6.63036C8.56565 6.2894 8.72756 6.00546 8.72756 5.77824C8.72756 5.61925 8.6878 5.45716 8.60834 5.29244C8.52882 5.12737 8.40667 4.92594 8.24183 4.68719C8.07693 4.44856 7.97753 4.30665 7.94338 4.26098C7.77311 3.97709 7.59717 3.67315 7.41514 3.34927C7.23311 3.02545 7.03442 2.66449 6.81842 2.26682C6.6026 1.86932 6.43227 1.5624 6.30713 1.34651C5.90964 0.551227 5.60856 0.119224 5.40397 0.0512838C5.32438 0.0171941 5.20498 0 5.04605 0C4.73907 0 4.33859 0.0567167 3.84432 0.170508C3.34987 0.284121 2.96079 0.403286 2.67667 0.52848C2.10849 0.766989 1.50628 1.46013 0.869857 2.60766C0.290332 3.6756 0.000598907 4.73262 0.000598907 5.77794C0.000598907 6.08451 0.0204796 6.38278 0.060241 6.67281C0.100002 6.96254 0.171047 7.28929 0.273436 7.65299C0.375645 8.01658 0.458093 8.28667 0.520422 8.46255C0.58281 8.63855 0.699289 8.95384 0.869797 9.40852C1.04007 9.86309 1.14245 10.1414 1.17654 10.2436C1.57422 11.3573 2.0458 12.3515 2.59118 13.2266C3.4885 14.681 4.71304 16.1841 6.26409 17.7353C7.8152 19.2864 9.31802 20.5108 10.7726 21.4085C11.6475 21.9538 12.6421 22.4254 13.7556 22.8233C13.8579 22.8573 14.1362 22.9594 14.5906 23.1303C15.0451 23.3007 15.3605 23.4171 15.5365 23.4796C15.7126 23.5422 15.9828 23.6247 16.346 23.7271C16.7101 23.8295 17.0366 23.9005 17.3263 23.9406C17.6162 23.9798 17.9145 24.0001 18.2212 24.0001C19.2664 24.0001 20.3235 23.7101 21.3916 23.1307C22.539 22.4945 23.232 21.8922 23.4706 21.3236C23.5961 21.0397 23.715 20.6506 23.8286 20.1561C23.9426 19.6619 23.9992 19.2615 23.9992 18.9545C23.9995 18.795 23.9824 18.6759 23.9481 18.5956Z" />
</g>
<defs>
<clipPath id="clip0_2_1213">
<rect width="24" height="24" fill="white"/>
</clipPath>
</defs>
</symbol>

<symbol id="logo" width="100%" height="100%" viewBox="0 0 40 40" fill="none" xmlns="http://www.w3.org/2000/svg">
<g clip-path="url(#clip0_24_739)">
<path d="M20 26C23.3 26 26 23.3 26 20C26 16.7 23.3 14 20 14C16.7 14 14 16.7 14 20C14 23.3 16.7 26 20 26ZM20 0C18 0 15.9 0.3 14 0.9V12C18.4 8.7 24.7 9.6 28 14C31.3 18.4 30.4 24.7 26 28C21.6 31.3 15.3 30.4 12 26C10.7 24.3 9.99999 22.2 9.99999 20V2.7C0.399989 8.2 -2.80001 20.4 2.69999 30C8.19999 39.6 20.4 42.8 30 37.3C39.6 31.8 42.8 19.6 37.3 10C33.8 3.8 27.2 0 20 0Z" fill="#E01F3D"/>
</g>
<defs>
<clipPath id="clip0_24_739">
<rect width="40" height="40" fill="white"/>
</clipPath>
</defs>
</symbol>

<symbol id="ear" width="100%" height="100%" viewBox="0 0 50 50" fill="none" xmlns="http://www.w3.org/2000/svg">
<g clip-path="url(#clip0_24_741)">
<path d="M14.9708 0C6.71605 0 0 7.27579 0 16.2591C0.0317662 18.342 0.602868 20.3811 1.6576 22.1775C2.15599 23.0277 2.58274 23.918 2.93344 24.839C3.16602 25.5159 2.94278 26.2658 2.37786 26.7053C1.39499 27.4911 0.825441 28.6832 0.831709 29.9415C0.827764 31.3243 1.51136 32.6185 2.65565 33.3948C3.06703 33.6743 3.31726 34.1359 3.32684 34.6332V41.5854C3.32684 46.1715 6.68444 49.9025 10.8122 49.9025C14.94 49.9025 18.2976 46.1715 18.2976 41.5854C18.285 38.1601 19.7745 34.9014 22.373 32.6695C27.2442 28.6051 30.0244 22.5619 29.9415 16.2183C29.9415 7.27579 23.2255 0 14.9708 0ZM21.2917 31.4062C18.3233 33.9534 16.621 37.674 16.6342 41.5854C16.6342 45.2541 14.0218 48.2391 10.8122 48.2391C7.60265 48.2391 4.99025 45.2541 4.99025 41.5854V34.6332C4.97678 33.6031 4.47131 32.6417 3.63041 32.0466C2.91983 31.5825 2.49254 30.7902 2.49513 29.9415C2.48942 29.1765 2.83983 28.4523 3.44327 27.982C4.55062 27.0949 4.97343 25.603 4.49622 24.2668C4.11317 23.2593 3.64662 22.2856 3.10144 21.3558C2.18489 19.7969 1.68934 18.0265 1.66342 16.2183C1.66342 8.19316 7.63342 1.66342 14.9708 1.66342C22.3081 1.66342 28.2781 8.19316 28.2781 16.2183C28.3542 22.0745 25.788 27.6533 21.2917 31.4062Z" fill="black"/>
<path d="M14.9707 4.15854C10.3356 4.15854 6.38335 7.44545 4.84885 12.0398C4.83803 12.0673 4.83055 12.0939 4.82223 12.123C4.38372 13.4571 4.15915 14.8522 4.15686 16.2566C4.15686 17.2546 4.15686 20.307 6.06397 22.2141C6.39032 22.5293 6.90906 22.5248 7.22988 22.204C7.5507 21.8832 7.5552 21.3644 7.24001 21.0381C6.55671 20.2785 6.11793 19.3308 5.9808 18.3184C6.11471 18.3101 6.24695 18.2993 6.38584 18.2993C10.2034 18.2976 13.3073 21.7908 13.3073 26.0824C13.3073 26.4808 13.2882 26.855 13.2574 27.2243C12.8433 27.6664 12.4028 28.0831 11.9383 28.4719C9.51592 30.4557 8.17332 33.4674 8.31707 36.5952C8.31707 37.0545 8.68944 37.4269 9.14878 37.4269C9.60812 37.4269 9.98049 37.0545 9.98049 36.5952C9.8374 33.958 10.9646 31.4116 13.0129 29.7444C15.9473 27.4922 17.6072 23.9568 17.4659 20.2604C17.4659 15.0539 13.5485 10.8122 8.73293 10.8122C8.17973 10.8137 7.62816 10.8722 7.08697 10.9869C8.53264 7.91802 11.5799 5.92167 14.9707 5.82196C20.0151 5.82196 24.1195 10.502 24.1195 16.2549C24.1849 20.787 22.2194 25.1106 18.7617 28.0411C18.6469 28.14 18.5196 28.2465 18.3816 28.3621C16.7265 29.7377 13.284 32.6038 12.4806 39.8305C12.432 40.2859 12.7607 40.6949 13.2158 40.7454C13.2462 40.7498 13.2767 40.7526 13.3073 40.7537C13.731 40.7533 14.0866 40.4346 14.1332 40.0135C14.8626 33.4513 17.8426 30.972 19.4445 29.6404C19.5917 29.5173 19.7273 29.4042 19.8487 29.2994C23.6768 26.0566 25.8537 21.2714 25.783 16.2549C25.783 9.58461 20.9324 4.15854 14.9707 4.15854ZM8.73293 12.4756C12.6311 12.4756 15.8025 15.9688 15.8025 20.2604C15.8402 21.8342 15.5277 23.3966 14.8876 24.8348C14.3295 20.2105 10.7349 16.6342 6.38751 16.6342C6.19538 16.6342 6.01074 16.6483 5.82527 16.6616C5.82527 16.5019 5.82527 16.363 5.82527 16.2549C5.82557 15.1427 5.98465 14.0361 6.29768 12.9688C7.0689 12.6452 7.89657 12.4776 8.73293 12.4756Z" fill="black"/>
<path d="M41.5854 19.1293C41.6492 16.508 42.7609 14.0216 44.6719 12.2261C44.904 12.02 45.002 11.7017 44.926 11.4007C44.8501 11.0997 44.6128 10.8661 44.3106 10.7948C44.0084 10.7235 43.6917 10.8264 43.4892 11.0617C41.268 13.1648 39.983 16.071 39.922 19.1293C39.983 22.1876 41.268 25.0937 43.4892 27.1969C43.6917 27.4322 44.0084 27.5351 44.3106 27.4638C44.6128 27.3925 44.8501 27.1589 44.926 26.8579C45.002 26.5569 44.904 26.2386 44.6719 26.0325C42.7609 24.237 41.6492 21.7506 41.5854 19.1293Z" fill="black"/>
<path d="M47.1288 14.3495C46.964 14.2028 46.7477 14.1275 46.5275 14.1403C46.3072 14.1531 46.1011 14.2529 45.9544 14.4177C43.4561 17.062 43.4561 21.1966 45.9544 23.8409C46.152 24.0629 46.453 24.1626 46.744 24.1024C47.0351 24.0423 47.2719 23.8315 47.3653 23.5494C47.4587 23.2673 47.3946 22.9567 47.197 22.7348C45.2597 20.7215 45.2597 17.5371 47.197 15.5239C47.3437 15.3591 47.4189 15.1428 47.4061 14.9225C47.3933 14.7023 47.2936 14.4962 47.1288 14.3495Z" fill="black"/>
<path d="M49.6887 16.9095C49.3814 16.5683 48.8557 16.5407 48.5144 16.8479C47.8154 17.3986 47.4074 18.2394 47.4074 19.1293C47.4074 20.0192 47.8154 20.86 48.5144 21.4107C48.7341 21.6165 49.0479 21.6875 49.3348 21.5964C49.6217 21.5052 49.837 21.2662 49.8976 20.9713C49.9583 20.6764 49.8548 20.3717 49.6272 20.1748C49.3047 19.9185 49.1032 19.5399 49.0708 19.1293C49.1032 18.7187 49.3047 18.3401 49.6272 18.0838C49.9684 17.7765 49.9959 17.2508 49.6887 16.9095Z" fill="black"/>
<path d="M37.4269 19.1293C37.4269 15.4698 39.0662 11.9334 42.1676 8.91259C42.3804 8.70459 42.466 8.39889 42.3923 8.11064C42.3185 7.82239 42.0966 7.59539 41.8101 7.51514C41.5236 7.43489 41.216 7.51358 41.0032 7.72158C37.5766 11.0617 35.7635 15.0065 35.7635 19.1293C35.7635 23.2521 37.5766 27.1969 41.0032 30.537C41.3321 30.8586 41.8594 30.8526 42.1809 30.5237C42.5025 30.1948 42.4965 29.6676 42.1676 29.346C39.0662 26.3253 37.4269 22.7888 37.4269 19.1293Z" fill="black"/>
<path d="M33.2684 19.1293C33.2684 14.5599 35.1996 10.1585 38.855 6.40416C39.063 6.19111 39.1415 5.88328 39.061 5.59662C38.9805 5.30997 38.7532 5.08804 38.4647 5.01443C38.1762 4.94082 37.8703 5.02672 37.6623 5.23977C33.7 9.31514 31.6049 14.1183 31.6049 19.1293C31.6049 24.1403 33.7 28.9435 37.6623 33.0188C37.9839 33.3482 38.5115 33.3545 38.8408 33.033C39.1702 32.7114 39.1765 32.1838 38.855 31.8544C35.1996 28.1001 33.2684 23.6987 33.2684 19.1293Z" fill="black"/>
</g>
<defs>
<clipPath id="clip0_24_741">
<rect width="50" height="50" fill="white"/>
</clipPath>
</defs>
</symbol>

<symbol id="battery" width="100%" height="100%" viewBox="0 0 50 50" fill="none" xmlns="http://www.w3.org/2000/svg">
<path d="M32.2832 3.99995H15.7168C13.8879 3.99995 12.4001 5.48777 12.4001 7.31671V44.6831C12.4001 46.5121 13.8879 47.9999 15.7168 47.9999H32.2833C34.1122 47.9999 35.6 46.5121 35.6 44.6831V7.31683C35.6 5.48777 34.1122 3.99995 32.2832 3.99995ZM34 44.6832C34 45.6296 33.2296 46.4 32.2832 46.4H15.7168C14.7704 46.4 14 45.6296 14 44.6832V7.31683C14 6.37042 14.7704 5.60003 15.7168 5.60003H32.2833C33.2297 5.60003 34.0001 6.37042 34.0001 7.31683V44.6832H34Z" fill="black"/>
<path d="M28.4 0H19.6001C19.1583 0 18.8 0.358242 18.8 0.800039V4.8C18.8 5.2418 19.1583 5.60004 19.6001 5.60004H28.4C28.8418 5.60004 29.2001 5.2418 29.2001 4.8V0.800039C29.2 0.358242 28.8418 0 28.4 0ZM27.6 3.99996H20.4V1.59996H27.6V3.99996Z" fill="black"/>
<path d="M29.8746 21.9702C29.7278 21.7392 29.4734 21.5998 29.2 21.5998H24.4V14.3998C24.4 14.0248 24.1393 13.7002 23.7734 13.619C23.404 13.5381 23.0336 13.7217 22.875 14.0616L17.275 26.0616C17.1594 26.3092 17.1785 26.5992 17.3254 26.8296C17.4722 27.0606 17.7266 27.2 18 27.2H22.8V34.4C22.8 34.775 23.0606 35.0996 23.4266 35.1808C23.4848 35.1939 23.543 35.2001 23.6004 35.2001C23.9058 35.2001 24.1914 35.0243 24.325 34.7382L29.925 22.7382C30.0406 22.4906 30.0215 22.2006 29.8746 21.9702ZM22.8 25.6H19.2563L22.8 18.0057V25.6ZM24.4 30.7942V23.2H27.9437L24.4 30.7942Z" fill="black"/>
</symbol>

<symbol id="plug" width="100%" height="100%" viewBox="0 0 50 50" fill="none" xmlns="http://www.w3.org/2000/svg">
<path d="M36.8 10.4H34.4V2.4C34.4 1.03997 33.36 0 32 0C30.6399 0 29.6 1.03997 29.6 2.4V10.4H18.4V2.4C18.4 1.03997 17.3601 0 16 0C14.64 0 13.6 1.03997 13.6 2.4V10.4H11.2C10.72 10.4 10.4001 10.7199 10.4001 11.1999V17.2799C10.4001 21.2799 11.92 25.1199 14.6401 28.0799C17.0401 30.7999 18.4001 34.3199 18.4001 37.9199V39.9999C18.4001 42.2399 20.1601 44 22.4002 44H23.2001V47.1999C23.2001 47.6799 23.5201 47.9999 24.0001 47.9999C24.4801 47.9999 24.8001 47.6799 24.8001 47.1999V44H25.6C27.84 44 29.6001 42.24 29.6001 39.9999V38C29.6001 34.32 30.88 30.8799 33.3601 28.16C36.0801 25.2 37.6001 21.2799 37.6001 17.28V11.2C37.6 10.72 37.28 10.4 36.8 10.4ZM31.2 2.4C31.2 1.92 31.52 1.60003 32 1.60003C32.48 1.60003 32.7999 1.92 32.7999 2.4V10.4H31.2V2.4ZM15.2 2.4C15.2 1.99997 15.5199 1.60003 15.9999 1.60003C16.4799 1.60003 16.7999 1.92 16.7999 2.4V10.4H15.1999V2.4H15.2ZM36 17.2C36 20.88 34.72 24.3201 32.24 27.04C29.52 30 28 33.92 28 37.92V40C28 41.3601 26.9601 42.4 25.6 42.4H22.4001C21.04 42.4 20.0001 41.3601 20.0001 40V38.0001C20.0001 34 18.4801 30.0801 15.76 27.1201C13.36 24.4 12 20.88 12 17.28V12H14.4H17.6H30.3999H33.6H36V17.2Z" fill="black"/>
<path d="M27.2 20.8H22.7199L26.96 16.56C27.2799 16.24 27.2799 15.76 26.96 15.44C26.64 15.1199 26.16 15.12 25.8399 15.44L20.24 21.0399C20 21.2799 19.92 21.5999 20.0799 21.92C20.1599 22.2399 20.48 22.4 20.7999 22.4H25.28L21.0399 26.64C20.72 26.96 20.72 27.44 21.0399 27.76C21.2 27.9201 21.3599 28 21.5999 28C21.8399 28 21.9999 27.9201 22.1599 27.76L27.7599 22.1601C27.9999 21.9201 28.0798 21.6001 27.9199 21.28C27.84 20.96 27.52 20.8 27.2 20.8Z" fill="black"/>
</symbol>

<symbol id="battery_big" x="30" y="30" width="50%" height="50%" viewBox="0 0 60 60" fill="none" xmlns="http://www.w3.org/2000/svg">
<rect width="60" height="60" fill="#313131"/>
<g id="1100" clip-path="url(#clip0_0_1)">
<rect width="1100" height="5944" transform="translate(-188 -957)" fill="white"/>
<g id="Features">
<g id="features">
<path id="&#208;&#173;&#208;&#187;&#208;&#187;&#208;&#184;&#208;&#191;&#209;&#129; 2" fill-rule="evenodd" clip-rule="evenodd" d="M30.4998 -32.0019C65.0177 -32.0019 92.9998 -4.01997 92.9998 30.498C92.9998 65.015 65.0177 92.9971 30.4998 92.9971C-4.01792 92.9971 -32.0001 65.015 -32.0001 30.498C-32.0001 -4.01997 -4.01792 -32.0019 30.4998 -32.0019Z" fill="#F2F5F4"/>
<g id="feat-1">
<g id="battery 1">
<path id="Vector" d="M42.536 4H36V0H24V4H17.464C15.554 4 14 5.554 14 7.464V56.536C14 58.446 15.554 60 17.464 60H42.536C44.446 60 46 58.446 46 56.536V7.464C46 5.554 44.446 4 42.536 4ZM16 19H44V31H16V19ZM16 33H44V45H16V33ZM26 2H34V4H26V2ZM17.464 6H24H36H42.536C43.344 6 44 6.656 44 7.464V17H16V7.464C16 6.656 16.656 6 17.464 6ZM42.536 58H17.464C16.656 58 16 57.344 16 56.536V47H44V56.536C44 57.344 43.344 58 42.536 58Z" fill="black"/>
</g>
</g>
</g>
</g>
<g id="design">
</g>
</g>
<defs>
<clipPath id="clip0_0_1">
<rect width="1100" height="5944" fill="white" transform="translate(-188 -957)"/>
</clipPath>
</defs>
</symbol>

<symbol id="volume" x="33" y="33" width="50%" height="50%" viewBox="0 0 52 52" fill="none" xmlns="http://www.w3.org/2000/svg">
<g clip-path="url(#clip0_50029_297)">
<path d="M28.404 3.41299C27.428 2.86099 26.273 2.87899 25.314 3.45699C25.268 3.48399 25.224 3.51599 25.184 3.54999L11.634 15.013H1C0.447 15.013 0 15.46 0 16.013V35.013C0 35.279 0.105 35.533 0.293 35.72C0.481 35.907 0.734 36.013 1 36.013L11.61 36.008L25.153 48.448C25.203 48.494 25.257 48.534 25.314 48.568C25.806 48.865 26.351 49.014 26.896 49.014C27.413 49.013 27.929 48.88 28.404 48.612C29.403 48.048 30 47.018 30 45.857V6.16899C30 5.00799 29.403 3.97799 28.404 3.41299ZM28 45.857C28 46.288 27.783 46.667 27.421 46.872C27.266 46.959 26.873 47.127 26.421 46.898L13 34.569V30.013C13 29.46 12.553 29.013 12 29.013C11.447 29.013 11 29.46 11 30.013V34.009L2 34.013V17.013H11V21.013C11 21.566 11.447 22.013 12 22.013C12.553 22.013 13 21.566 13 21.013V16.477L26.405 5.13699C26.866 4.89499 27.265 5.06699 27.421 5.15499C27.783 5.35999 28 5.73899 28 6.16899V45.857Z" fill="black"/>
<path d="M38.797 7.06596C38.274 6.88896 37.706 7.16896 37.528 7.69196C37.351 8.21396 37.631 8.78296 38.154 8.96096C45.255 11.372 50.026 18.024 50.026 25.514C50.026 32.997 45.264 39.65 38.177 42.068C37.655 42.246 37.375 42.814 37.554 43.338C37.696 43.753 38.084 44.015 38.5 44.015C38.607 44.015 38.716 43.998 38.823 43.961C46.719 41.268 52.025 33.855 52.025 25.515C52.026 17.166 46.71 9.75296 38.797 7.06596Z" fill="black"/>
<path d="M43.026 25.513C43.026 19.541 39.017 14.211 33.277 12.551C32.744 12.4 32.193 12.703 32.039 13.235C31.886 13.765 32.191 14.32 32.723 14.473C37.612 15.886 41.027 20.426 41.027 25.513C41.027 30.6 37.612 35.14 32.723 36.553C32.192 36.706 31.886 37.261 32.039 37.791C32.166 38.229 32.565 38.514 33 38.514C33.092 38.514 33.185 38.501 33.277 38.475C39.018 36.815 43.026 31.485 43.026 25.513Z" fill="black"/>
</g>
<defs>
<clipPath id="clip0_50029_297">
<rect width="52" height="52" fill="white"/>
</clipPath>
</defs>
</symbol>

<symbol id="clock" x="30" y="30" width="50%" height="50%" viewBox="0 0 60 60" fill="none" xmlns="http://www.w3.org/2000/svg">
<path d="M31.634 37.989C32.675 37.908 33.624 37.377 34.24 36.53L43.603 23.586C43.89 23.189 43.847 22.641 43.499 22.293C43.151 21.946 42.603 21.903 42.206 22.189L29.26 31.555C28.416 32.169 27.885 33.118 27.804 34.159C27.723 35.2 28.1 36.219 28.837 36.956C29.508 37.628 30.413 38 31.354 38C31.447 38 31.54 37.996 31.634 37.989ZM29.798 34.315C29.833 33.858 30.067 33.441 30.435 33.173L38.332 27.46L32.621 35.355C32.351 35.726 31.934 35.959 31.477 35.995C31.022 36.025 30.575 35.867 30.25 35.542C29.928 35.219 29.762 34.771 29.798 34.315Z" fill="black"/>
<path d="M54.034 19.564C54.024 19.543 54.024 19.521 54.013 19.5C54.001 19.48 53.982 19.469 53.969 19.45C52.958 17.716 51.762 16.103 50.404 14.641L52.552 12.494L53.966 13.908L58.208 9.665L53.966 5.423L49.723 9.665L51.138 11.08L48.99 13.227C47.528 11.869 45.916 10.672 44.181 9.661C44.162 9.648 44.151 9.629 44.131 9.617C44.11 9.605 44.088 9.606 44.067 9.595C40.974 7.813 37.499 6.626 33.794 6.191V5H35.294C36.673 5 37.794 3.879 37.794 2.5C37.794 1.121 36.672 0 35.293 0H26.293C24.914 0 23.793 1.121 23.793 2.5C23.793 3.879 24.914 5 26.293 5H27.793V6.156C26.713 6.271 25.635 6.447 24.569 6.691C24.031 6.814 23.694 7.351 23.818 7.889C23.941 8.427 24.478 8.765 25.016 8.64C25.936 8.429 26.865 8.27 27.796 8.163L28.869 8.08C29.197 8.055 29.499 8.037 29.793 8.023V10C29.793 10.553 30.24 11 30.793 11C31.346 11 31.793 10.553 31.793 10V8.03C35.554 8.203 39.098 9.213 42.249 10.875L41.263 12.582C40.987 13.061 41.151 13.672 41.629 13.948C41.786 14.039 41.958 14.082 42.128 14.082C42.474 14.082 42.81 13.903 42.995 13.582L43.978 11.879C47.107 13.864 49.765 16.522 51.75 19.651L50.047 20.634C49.57 20.91 49.406 21.521 49.683 22C49.869 22.321 50.204 22.5 50.55 22.5C50.72 22.5 50.892 22.457 51.049 22.366L52.756 21.38C54.441 24.576 55.454 28.178 55.605 31.999H53.63C53.077 31.999 52.63 32.446 52.63 32.999C52.63 33.552 53.077 33.999 53.63 33.999H55.605C55.454 37.82 54.441 41.422 52.756 44.618L51.049 43.632C50.571 43.356 49.959 43.518 49.683 43.998C49.407 44.477 49.571 45.088 50.049 45.364L51.752 46.347C49.767 49.476 47.109 52.134 43.98 54.119L42.997 52.416C42.72 51.936 42.107 51.773 41.631 52.05C41.152 52.326 40.988 52.938 41.265 53.416L42.251 55.123C39.1 56.785 35.556 57.795 31.795 57.968V56C31.795 55.447 31.348 55 30.795 55C30.242 55 29.795 55.447 29.795 56V57.976C28.198 57.921 26.596 57.721 25.019 57.359C24.481 57.23 23.944 57.572 23.821 58.11C23.697 58.648 24.034 59.185 24.572 59.308C26.568 59.768 28.607 60 30.63 60C30.679 60 30.726 59.997 30.775 59.996C30.782 59.996 30.787 60 30.793 60C30.801 60 30.808 59.995 30.816 59.995C35.623 59.962 40.133 58.664 44.035 56.422C44.066 56.408 44.099 56.401 44.129 56.383C44.149 56.371 44.16 56.352 44.179 56.339C48.218 53.985 51.593 50.614 53.952 46.578C53.971 46.551 53.995 46.53 54.012 46.5C54.024 46.479 54.023 46.457 54.033 46.436C56.317 42.476 57.63 37.89 57.63 33C57.63 28.11 56.317 23.524 54.034 19.564ZM53.965 8.251L55.379 9.665L53.965 11.08L52.55 9.665L53.965 8.251ZM29.793 6.021V3H26.293C26.018 3 25.793 2.775 25.793 2.5C25.793 2.225 26.018 2 26.293 2H35.293C35.568 2 35.793 2.225 35.793 2.5C35.793 2.775 35.568 3 35.293 3H31.793V6.021C31.445 6.007 31.113 6 30.793 6C30.765 6 30.733 6.002 30.705 6.002C30.68 6.002 30.655 6 30.63 6C30.466 6 30.302 6.011 30.138 6.014C30.022 6.017 29.913 6.016 29.793 6.021Z" fill="black"/>
<path d="M21.793 14H16.793C16.24 14 15.793 14.447 15.793 15C15.793 15.553 16.24 16 16.793 16H21.793C22.346 16 22.793 15.553 22.793 15C22.793 14.447 22.346 14 21.793 14Z" fill="black"/>
<path d="M21.793 21H11.793C11.24 21 10.793 21.447 10.793 22C10.793 22.553 11.24 23 11.793 23H21.793C22.346 23 22.793 22.553 22.793 22C22.793 21.447 22.346 21 21.793 21Z" fill="black"/>
<path d="M21.793 28H6.793C6.24 28 5.793 28.447 5.793 29C5.793 29.553 6.24 30 6.793 30H21.793C22.346 30 22.793 29.553 22.793 29C22.793 28.447 22.346 28 21.793 28Z" fill="black"/>
<path d="M21.793 35H2.793C2.24 35 1.793 35.447 1.793 36C1.793 36.553 2.24 37 2.793 37H21.793C22.346 37 22.793 36.553 22.793 36C22.793 35.447 22.346 35 21.793 35Z" fill="black"/>
<path d="M21.793 42H8.793C8.24 42 7.793 42.447 7.793 43C7.793 43.553 8.24 44 8.793 44H21.793C22.346 44 22.793 43.553 22.793 43C22.793 42.447 22.346 42 21.793 42Z" fill="black"/>
<path d="M21.793 49H14.793C14.24 49 13.793 49.447 13.793 50C13.793 50.553 14.24 51 14.793 51H21.793C22.346 51 22.793 50.553 22.793 50C22.793 49.447 22.346 49 21.793 49Z" fill="black"/>
</symbol>

<symbol id="vk" width="100%" height="100%" viewBox="0 0 30 30" xmlns="http://www.w3.org/2000/svg">
<g clip-path="url(#clip0_50089_92)">
<path d="M15 0C6.71779 0 0 6.71779 0 15C0 23.2822 6.71779 30 15 30C23.2822 30 30 23.2822 30 15C30 6.71779 23.2822 0 15 0ZM22.6074 16.6258C23.3129 17.3006 24.0491 17.9448 24.6626 18.7117C24.9386 19.0491 25.2147 19.3865 25.3988 19.7853C25.6748 20.3374 25.4294 20.9509 24.9386 20.9816H21.8712C21.0736 21.0429 20.4601 20.7362 19.908 20.184C19.4785 19.7546 19.0798 19.2945 18.681 18.8344C18.5276 18.6503 18.3436 18.4663 18.1288 18.3436C17.6994 18.0675 17.3313 18.1595 17.1166 18.589C16.8712 19.0491 16.8098 19.5399 16.7791 20.0307C16.7485 20.7669 16.5337 20.9509 15.7975 20.9816C14.2331 21.0429 12.7607 20.8282 11.411 20.0307C10.2147 19.3252 9.2638 18.3742 8.46626 17.2699C6.87117 15.1227 5.67485 12.7607 4.57055 10.3374C4.32515 9.78528 4.5092 9.5092 5.1227 9.47853C6.13497 9.44785 7.11656 9.44785 8.12883 9.47853C8.52761 9.47853 8.80368 9.72393 8.95705 10.092C9.5092 11.411 10.1534 12.6994 10.9816 13.865C11.1963 14.1718 11.4417 14.4785 11.7485 14.7239C12.1166 14.9693 12.362 14.8773 12.546 14.4785C12.638 14.2331 12.6994 13.9571 12.7301 13.681C12.8221 12.7607 12.8221 11.8405 12.6687 10.9202C12.5767 10.3067 12.2699 9.93865 11.6871 9.81595C11.3804 9.7546 11.4417 9.66258 11.5644 9.47853C11.8098 9.20245 12.0552 9.0184 12.5153 9.0184H15.9816C16.5337 9.1411 16.6564 9.35583 16.7178 9.90797V13.773C16.7178 13.9877 16.8098 14.6319 17.2086 14.7546C17.5153 14.8466 17.7301 14.6012 17.9141 14.4172C18.7423 13.5276 19.3252 12.4847 19.8773 11.411C20.1227 10.9202 20.3067 10.4294 20.5215 9.93865C20.6748 9.57055 20.8896 9.3865 21.319 9.3865H24.6626C24.7546 9.3865 24.8466 9.3865 24.9693 9.41718C25.5215 9.5092 25.6748 9.7546 25.5215 10.3067C25.2454 11.1656 24.7239 11.9018 24.2025 12.6074C23.6503 13.3742 23.0368 14.1104 22.4847 14.908C21.9325 15.6442 21.9632 16.0123 22.6074 16.6258Z"/>
</g>
<defs>
<clipPath id="clip0_50089_92">
<rect width="30" height="30" fill="white"/>
</clipPath>
</defs>
</symbol>

<symbol id="facebook"  width="100%" height="100%" viewBox="0 0 30 30" xmlns="http://www.w3.org/2000/svg">
<g clip-path="url(#clip0_50089_303)">
<path d="M17.4199 29.8066C17.2969 29.8242 17.168 29.8477 17.0449 29.8652C17.168 29.8418 17.291 29.8242 17.4199 29.8066Z" />
<path d="M17.7187 29.7539C17.6602 29.7656 17.6016 29.7773 17.5371 29.7832C17.6016 29.7773 17.6602 29.7656 17.7187 29.7539Z" />
<path d="M16.7051 29.9004C16.5586 29.918 16.4121 29.9297 16.2656 29.9414C16.4121 29.9355 16.5586 29.918 16.7051 29.9004Z" />
<path d="M16.998 29.8652C16.9277 29.877 16.8574 29.8828 16.7871 29.8887C16.8516 29.8828 16.9277 29.877 16.998 29.8652Z" />
<path d="M18.1289 29.6719C18.0762 29.6836 18.0234 29.6953 17.9707 29.707C18.0234 29.6953 18.0762 29.6836 18.1289 29.6719Z" />
<path d="M19.1426 29.4199C19.1016 29.4316 19.0547 29.4434 19.0137 29.4551C19.0547 29.4434 19.0957 29.4316 19.1426 29.4199Z" />
<path d="M18.832 29.502C18.7852 29.5137 18.7383 29.5254 18.6914 29.5371C18.7441 29.5313 18.7852 29.5195 18.832 29.502Z" />
<path d="M18.4336 29.6074C18.3867 29.6191 18.334 29.6309 18.2871 29.6426C18.334 29.625 18.3867 29.6133 18.4336 29.6074Z" />
<path d="M16.2598 29.9473C16.1836 29.9531 16.1016 29.959 16.0254 29.9648C16.1016 29.959 16.1836 29.9531 16.2598 29.9473Z" />
<path d="M30 15C30 6.71484 23.2852 0 15 0C6.71484 0 0 6.71484 0 15C0 23.2852 6.71484 30 15 30C15.0879 30 15.1758 30 15.2637 29.9941V18.3223H12.041V14.5664H15.2637V11.8008C15.2637 8.5957 17.2207 6.84961 20.0801 6.84961C21.4512 6.84961 22.6289 6.94922 22.9688 6.99609V10.3477H21C19.4473 10.3477 19.1426 11.0859 19.1426 12.1699V14.5605H22.8633L22.377 18.3164H19.1426V29.4199C25.4121 27.6211 30 21.8496 30 15Z" />
<path d="M15.9902 29.9648C15.832 29.9766 15.6797 29.9824 15.5215 29.9883C15.6797 29.9824 15.832 29.9766 15.9902 29.9648Z" />
<path d="M15.5156 29.9883C15.4336 29.9883 15.3516 29.9941 15.2695 29.9941C15.3457 29.9941 15.4277 29.9941 15.5156 29.9883Z" />
</g>
<defs>
<clipPath id="clip0_50089_303">
<rect width="30" height="30" fill="white"/>
</clipPath>
</defs>
</symbol>

<symbol id="insta" width="100%" height="100%" viewBox="0 0 30 30" xmlns="http://www.w3.org/2000/svg">
<g clip-path="url(#clip0_50089_65)">
<path d="M17.8711 15C17.8711 16.5879 16.5879 17.8711 15 17.8711C13.4121 17.8711 12.1289 16.5879 12.1289 15C12.1289 13.4121 13.4121 12.1289 15 12.1289C16.5879 12.1289 17.8711 13.4121 17.8711 15Z" />
<path d="M21.7148 9.91992C21.5742 9.54492 21.3574 9.20508 21.0703 8.92969C20.7949 8.64258 20.4551 8.42578 20.0801 8.28516C19.7754 8.16797 19.3184 8.02734 18.4805 7.98633C17.5723 7.94531 17.2969 7.93359 15 7.93359C12.6973 7.93359 12.4277 7.93945 11.5195 7.98633C10.6816 8.02734 10.2246 8.16797 9.91992 8.28516C9.54492 8.42578 9.20508 8.64258 8.92969 8.92969C8.64258 9.20508 8.42578 9.54492 8.28516 9.91992C8.16797 10.2246 8.02734 10.6816 7.98633 11.5195C7.94531 12.4277 7.93359 12.6973 7.93359 15C7.93359 17.2969 7.94531 17.5723 7.98633 18.4805C8.02734 19.3184 8.16211 19.7754 8.28516 20.0801C8.42578 20.4551 8.64258 20.7949 8.92969 21.0703C9.20508 21.3574 9.54492 21.5742 9.91992 21.7148C10.2246 21.832 10.6816 21.9727 11.5195 22.0137C12.4277 22.0547 12.6973 22.0664 15 22.0664C17.3027 22.0664 17.5723 22.0605 18.4805 22.0137C19.3184 21.9727 19.7754 21.8379 20.0801 21.7148C20.8301 21.4277 21.4277 20.8301 21.7148 20.0801C21.832 19.7754 21.9727 19.3184 22.0137 18.4805C22.0547 17.5723 22.0664 17.2969 22.0664 15C22.0664 12.6973 22.0605 12.4277 22.0137 11.5195C21.9727 10.6816 21.832 10.2246 21.7148 9.91992ZM15 19.4238C12.5566 19.4238 10.5762 17.4434 10.5762 15C10.5762 12.5566 12.5566 10.5762 15 10.5762C17.4434 10.5762 19.4238 12.5566 19.4238 15C19.4238 17.4434 17.4434 19.4238 15 19.4238ZM19.5996 11.4375C19.0313 11.4375 18.5684 10.9746 18.5684 10.4063C18.5684 9.83789 19.0313 9.375 19.5996 9.375C20.168 9.375 20.6309 9.83789 20.6309 10.4063C20.6309 10.9746 20.168 11.4375 19.5996 11.4375Z" />
<path d="M15 0C6.71484 0 0 6.71484 0 15C0 23.2852 6.71484 30 15 30C23.2852 30 30 23.2852 30 15C30 6.71484 23.2852 0 15 0ZM23.5605 18.5508C23.5195 19.4648 23.373 20.0918 23.1621 20.6426C22.7168 21.7969 21.8027 22.7168 20.6426 23.1621C20.0977 23.373 19.4707 23.5195 18.5508 23.5605C17.6309 23.6016 17.3379 23.6133 15 23.6133C12.6621 23.6133 12.3691 23.6016 11.4492 23.5605C10.5352 23.5195 9.9082 23.373 9.35742 23.1621C8.7832 22.9453 8.26172 22.6055 7.83398 22.166C7.39453 21.7383 7.05469 21.2168 6.83789 20.6426C6.62695 20.0977 6.48047 19.4707 6.43945 18.5508C6.39844 17.6309 6.38672 17.3379 6.38672 15C6.38672 12.6621 6.39844 12.3691 6.43945 11.4492C6.48047 10.5352 6.62695 9.9082 6.83789 9.35742C7.05469 8.7832 7.39453 8.26172 7.83398 7.83398C8.26172 7.39453 8.7832 7.05469 9.35742 6.83789C9.9082 6.62695 10.5293 6.48047 11.4492 6.43945C12.3691 6.39844 12.6621 6.38672 15 6.38672C17.3379 6.38672 17.6309 6.39844 18.5508 6.43945C19.4648 6.48047 20.0918 6.62695 20.6426 6.83789C21.2168 7.05469 21.7383 7.39453 22.166 7.83398C22.6055 8.26172 22.9453 8.7832 23.1621 9.35742C23.373 9.9082 23.5195 10.5293 23.5605 11.4492C23.6016 12.3691 23.6133 12.6621 23.6133 15C23.6133 17.3379 23.6016 17.6309 23.5605 18.5508Z" />
</g>
<defs>
<clipPath id="clip0_50089_65">
<rect width="30" height="30" fill="white"/>
</clipPath>
</defs>
</symbol>

<symbol id="telegram" width="100%" height="100%" viewBox="0 0 30 30"  xmlns="http://www.w3.org/2000/svg">
<g clip-path="url(#clip0_50089_145)">
<path d="M15 30C23.2852 30 30 23.2852 30 15C30 6.71484 23.2852 0 15 0C6.71484 0 0 6.71484 0 15C0 23.2852 6.71484 30 15 30ZM6.86133 14.6777L21.3281 9.09961C22.002 8.85938 22.5879 9.26367 22.3652 10.2773L19.9043 21.8789C19.7227 22.6992 19.2305 22.9043 18.5508 22.5117L14.8008 19.7461L12.9902 21.4863C12.791 21.6855 12.6211 21.8555 12.2344 21.8555L12.498 18.041L19.4531 11.7656C19.7578 11.502 19.3828 11.3496 18.9844 11.6133L10.3945 17.0215L6.69141 15.8672C5.88867 15.6094 5.87109 15.0645 6.86133 14.6777Z" />
</g>
<defs>
<clipPath id="clip0_50089_145">
<rect width="30" height="30" fill="white"/>
</clipPath>
</defs>
</symbol>


</svg>