<svg width="36" height="36" viewBox="0 0 48 48" fill="none" xmlns="http://www.w3.org/2000/svg">
<path d="M36.8 10.4H34.4V2.4C34.4 1.03997 33.36 0 32 0C30.6399 0 29.6 1.03997 29.6 2.4V10.4H18.4V2.4C18.4 1.03997 17.3601 0 16 0C14.64 0 13.6 1.03997 13.6 2.4V10.4H11.2C10.72 10.4 10.4001 10.7199 10.4001 11.1999V17.2799C10.4001 21.2799 11.92 25.1199 14.6401 28.0799C17.0401 30.7999 18.4001 34.3199 18.4001 37.9199V39.9999C18.4001 42.2399 20.1601 44 22.4002 44H23.2001V47.1999C23.2001 47.6799 23.5201 47.9999 24.0001 47.9999C24.4801 47.9999 24.8001 47.6799 24.8001 47.1999V44H25.6C27.84 44 29.6001 42.24 29.6001 39.9999V38C29.6001 34.32 30.88 30.8799 33.3601 28.16C36.0801 25.2 37.6001 21.2799 37.6001 17.28V11.2C37.6 10.72 37.28 10.4 36.8 10.4ZM31.2 2.4C31.2 1.92 31.52 1.60003 32 1.60003C32.48 1.60003 32.7999 1.92 32.7999 2.4V10.4H31.2V2.4ZM15.2 2.4C15.2 1.99997 15.5199 1.60003 15.9999 1.60003C16.4799 1.60003 16.7999 1.92 16.7999 2.4V10.4H15.1999V2.4H15.2ZM36 17.2C36 20.88 34.72 24.3201 32.24 27.04C29.52 30 28 33.92 28 37.92V40C28 41.3601 26.9601 42.4 25.6 42.4H22.4001C21.04 42.4 20.0001 41.3601 20.0001 40V38.0001C20.0001 34 18.4801 30.0801 15.76 27.1201C13.36 24.4 12 20.88 12 17.28V12H14.4H17.6H30.3999H33.6H36V17.2Z" fill="black"/>
<path d="M27.2 20.8H22.7199L26.96 16.56C27.2799 16.24 27.2799 15.76 26.96 15.44C26.64 15.1199 26.16 15.12 25.8399 15.44L20.24 21.0399C20 21.2799 19.92 21.5999 20.0799 21.92C20.1599 22.2399 20.48 22.4 20.7999 22.4H25.28L21.0399 26.64C20.72 26.96 20.72 27.44 21.0399 27.76C21.2 27.9201 21.3599 28 21.5999 28C21.8399 28 21.9999 27.9201 22.1599 27.76L27.7599 22.1601C27.9999 21.9201 28.0798 21.6001 27.9199 21.28C27.84 20.96 27.52 20.8 27.2 20.8Z" fill="black"/>
</svg>
